# xmcd
# 
# Track frame offsets:
#     150
#     25787
#     46992
#     73875
#     97892
#     122352
#     150250
#     177400
#     194825
#     221165
# 
# Disc length: 3669
# 
# Revision: 1
# Processed by: cddbd v1.5.2PL0 Copyright (c) Steve Scherf et al.
# Submitted via: BonkEnc v1.0.8
# 
DISCID=870e530a
DTITLE=Andy LaVerne - True Colors
DYEAR=1987
DGENRE=Contemporary Jazz
TTITLE0=True Colors
TTITLE1=Maximum Density
TTITLE2=Song Is You
TTITLE3=Cubic Zirconia
TTITLE4=Night and Day
TTITLE5=Once I Loved
TTITLE6=I Hear A Rhapsody
TTITLE7=Pannonica
TTITLE8=If I Were A Bell
TTITLE9=In Your Own Sweet Way
EXTD=
EXTT0=
EXTT1=
EXTT2=
EXTT3=
EXTT4=
EXTT5=
EXTT6=
EXTT7=
EXTT8=
EXTT9=
PLAYORDER=
